<svg width="17" height="17" viewBox="0 0 17 17" fill="none" xmlns="http://www.w3.org/2000/svg">
<path d="M6.03338 8.04166C5.32614 8.04166 4.64786 7.76071 4.14776 7.26061C3.64767 6.76052 3.36672 6.08224 3.36672 5.375V3.24166C3.36672 3.10021 3.42291 2.96456 3.52293 2.86454C3.62294 2.76452 3.7586 2.70833 3.90005 2.70833H4.43338C4.57483 2.70833 4.71049 2.65214 4.81051 2.55212C4.91053 2.4521 4.96672 2.31644 4.96672 2.175C4.96672 2.03355 4.91053 1.89789 4.81051 1.79787C4.71049 1.69785 4.57483 1.64166 4.43338 1.64166H3.90005C3.4757 1.64166 3.06874 1.81023 2.76868 2.11029C2.46862 2.41035 2.30005 2.81732 2.30005 3.24166V5.375C2.30073 5.97752 2.44766 6.57088 2.72821 7.10411C3.00876 7.63733 3.41454 8.0945 3.91072 8.43633C4.3879 8.85621 4.77483 9.36864 5.04803 9.94255C5.32123 10.5165 5.47502 11.1399 5.50005 11.775C5.50005 12.7651 5.89338 13.7147 6.59352 14.4149C7.29365 15.115 8.24324 15.5083 9.23338 15.5083C10.2235 15.5083 11.1731 15.115 11.8732 14.4149C12.5734 13.7147 12.9667 12.7651 12.9667 11.775V11.167C13.4695 11.0372 13.9076 10.7285 14.199 10.2987C14.4905 9.86898 14.6151 9.3477 14.5497 8.8326C14.4843 8.3175 14.2332 7.84394 13.8436 7.50069C13.454 7.15744 12.9526 6.96807 12.4334 6.96807C11.9141 6.96807 11.4127 7.15744 11.0231 7.50069C10.6335 7.84394 10.3825 8.3175 10.3171 8.8326C10.2516 9.3477 10.3763 9.86898 10.6677 10.2987C10.9591 10.7285 11.3973 11.0372 11.9 11.167V11.775C11.9 12.4822 11.6191 13.1605 11.119 13.6606C10.6189 14.1607 9.94063 14.4417 9.23338 14.4417C8.52614 14.4417 7.84786 14.1607 7.34776 13.6606C6.84767 13.1605 6.56672 12.4822 6.56672 11.775C6.5931 11.1391 6.74854 10.5152 7.0236 9.94123C7.29866 9.36728 7.68758 8.85527 8.16672 8.43633C8.66092 8.09331 9.06463 7.63563 9.34328 7.10247C9.62193 6.56932 9.76722 5.97658 9.76672 5.375V3.24166C9.76672 2.81732 9.59815 2.41035 9.29809 2.11029C8.99803 1.81023 8.59106 1.64166 8.16672 1.64166H7.63338C7.49193 1.64166 7.35628 1.69785 7.25626 1.79787C7.15624 1.89789 7.10005 2.03355 7.10005 2.175C7.10005 2.31644 7.15624 2.4521 7.25626 2.55212C7.35628 2.65214 7.49193 2.70833 7.63338 2.70833H8.16672C8.30816 2.70833 8.44382 2.76452 8.54384 2.86454C8.64386 2.96456 8.70005 3.10021 8.70005 3.24166V5.375C8.70005 5.72519 8.63107 6.07195 8.49706 6.39549C8.36305 6.71902 8.16662 7.01299 7.919 7.26061C7.67138 7.50824 7.37741 7.70466 7.05387 7.83868C6.73034 7.97269 6.38357 8.04166 6.03338 8.04166ZM12.4334 10.175C12.1505 10.175 11.8792 10.0626 11.6791 9.86258C11.4791 9.66254 11.3667 9.39123 11.3667 9.10833C11.3667 8.82543 11.4791 8.55412 11.6791 8.35408C11.8792 8.15404 12.1505 8.04166 12.4334 8.04166C12.7163 8.04166 12.9876 8.15404 13.1876 8.35408C13.3877 8.55412 13.5 8.82543 13.5 9.10833C13.5 9.39123 13.3877 9.66254 13.1876 9.86258C12.9876 10.0626 12.7163 10.175 12.4334 10.175Z" fill="#14AE5C"/>
</svg>
